# xmcd
#
# Track frame offsets:
#	150
#	22950
#	41100
#	60000
#	78450
#	95700
#	112575
#	134625
#	147825
#	158775
#	175050
#	187725
#	204900
#	226050
#	245925
#
# Disc length: 3298
#
# Revision: 1
# Processed by: cddbd v1.5.2PL0 Copyright (c) Steve Scherf et al.
# Submitted via: kJams Pro 1.0b35
#
DISCID=ba0ce00f
DTITLE=Big and Rich - AKS–10002
DYEAR=2003
DGENRE=Country
TTITLE0=Big and Rich - Rollin'
TTITLE1=Big and Rich - Wild West Show
TTITLE2=Big and Rich - Big Time
TTITLE3=Big and Rich - Kick My Ass
TTITLE4=Big and Rich - Six Foot Town
TTITLE5=Big and Rich - Holy Water
TTITLE6=Big and Rich - Saved
TTITLE7=Big and Rich - Real World
TTITLE8=Big and Rich - I'm A Rock Star
TTITLE9=Big and Rich - Save A Horse, Ride A Cowboy
TTITLE10=Big and Rich - Drinkin' Bout You
TTITLE11=Big and Rich - Love Train
TTITLE12=Big and Rich - Deadwood Mountain
TTITLE13=Big and Rich - Live This Life
TTITLE14=Big and Rich - Empty Track
EXTD=
EXTT0=
EXTT1=
EXTT2=
EXTT3=
EXTT4=
EXTT5=
EXTT6=
EXTT7=
EXTT8=
EXTT9=
EXTT10=
EXTT11=
EXTT12=
EXTT13=
EXTT14=
PLAYORDER=
